<?xml version="1.0" encoding="UTF-8" standalone="no"?>
<!-- Uploaded to: SVG Repo, www.svgrepo.com, Generator: SVG Repo Mixer Tools -->

<svg
   height="23.999998"
   width="23.999996"
   version="1.1"
   id="Layer_1"
   viewBox="0 0 15.360028 15.360029"
   xml:space="preserve"
   sodipodi:docname="codes.svg"
   inkscape:version="1.2.1 (9c6d41e410, 2022-07-14)"
   xmlns:inkscape="http://www.inkscape.org/namespaces/inkscape"
   xmlns:sodipodi="http://sodipodi.sourceforge.net/DTD/sodipodi-0.dtd"
   xmlns="http://www.w3.org/2000/svg"
   xmlns:svg="http://www.w3.org/2000/svg"><defs
   id="defs17" /><sodipodi:namedview
   id="namedview15"
   pagecolor="#ffffff"
   bordercolor="#000000"
   borderopacity="0.25"
   inkscape:showpageshadow="2"
   inkscape:pageopacity="0.0"
   inkscape:pagecheckerboard="true"
   inkscape:deskcolor="#d1d1d1"
   showgrid="false"
   inkscape:zoom="33.916669"
   inkscape:cx="11.985257"
   inkscape:cy="11.999999"
   inkscape:window-width="1920"
   inkscape:window-height="1017"
   inkscape:window-x="-8"
   inkscape:window-y="-8"
   inkscape:window-maximized="1"
   inkscape:current-layer="Layer_1" />





<g
   id="g252"
   transform="matrix(0.03000001,0,0,0.0386238,-5.9328572e-6,-2.2076978)"><path
     style="fill:#49c158"
     d="M 413.265,445.773 170.516,376.898 c -8.945,-2.538 -14.139,-11.847 -11.601,-20.792 L 227.79,113.357 c 2.538,-8.945 11.847,-14.139 20.792,-11.601 l 242.749,68.875 c 8.945,2.538 14.139,11.847 11.601,20.792 l -68.875,242.749 c -2.537,8.944 -11.847,14.139 -20.792,11.601 z"
     id="path2" /><path
     style="fill:#e44f50"
     d="m 98.728,445.773 242.749,-68.875 c 8.945,-2.538 14.139,-11.847 11.601,-20.792 L 284.203,113.357 c -2.538,-8.945 -11.847,-14.139 -20.792,-11.601 L 20.662,170.631 c -8.945,2.538 -14.139,11.847 -11.601,20.792 l 68.875,242.749 c 2.538,8.944 11.847,14.139 20.792,11.601 z"
     id="path4" /><path
     style="fill:#00af64"
     d="M 420.886,416.113 V 150.643 L 248.582,101.756 c -8.945,-2.538 -18.253,2.656 -20.792,11.601 l -68.875,242.749 c -2.538,8.945 2.656,18.254 11.601,20.792 l 206.634,58.628 h 24.322 c 10.722,0 19.414,-8.691 19.414,-19.413 z"
     id="path6" /><path
     style="fill:#dd263d"
     d="m 284.203,113.357 c -2.538,-8.945 -11.847,-14.139 -20.792,-11.601 L 91.108,150.643 v 265.47 c 0,10.721 8.692,19.413 19.413,19.413 h 24.322 l 206.634,-58.628 c 8.945,-2.538 14.139,-11.847 11.601,-20.792 z"
     id="path8" /><path
     style="fill:#f5ba3d"
     d="M 382.162,409.227 H 129.831 c -9.298,0 -16.836,-7.538 -16.836,-16.836 V 82.413 c 0,-9.298 7.538,-16.836 16.836,-16.836 h 252.331 c 9.298,0 16.836,7.538 16.836,16.836 v 309.978 c 0,9.298 -7.538,16.836 -16.836,16.836 z"
     id="path10" /><path
     d="m 508.788,174.522 c -3.286,-5.89 -8.671,-10.149 -15.16,-11.991 l -56.983,-16.167 c -4.474,-1.267 -9.127,1.328 -10.397,5.801 -1.268,4.473 1.328,9.127 5.801,10.397 l 56.983,16.167 c 4.466,1.267 7.068,5.931 5.801,10.396 l -68.876,242.749 c -0.614,2.164 -2.034,3.958 -3.997,5.053 -1.963,1.095 -4.235,1.359 -6.312,0.772 l -67.876,-20.056 h 34.388 c 13.926,0 25.254,-11.328 25.254,-25.254 V 82.413 c 0,-13.926 -11.328,-25.254 -25.254,-25.254 H 129.831 c -13.926,0 -25.254,11.328 -25.254,25.254 v 309.978 c 0,13.926 11.328,25.254 25.254,25.254 h 37.195 l -70.595,20.03 c -2.163,0.614 -4.436,0.35 -6.4,-0.747 -1.963,-1.095 -3.383,-2.89 -3.997,-5.053 L 17.158,189.125 c -1.267,-4.466 1.335,-9.128 5.801,-10.396 L 81.816,162.03 c 4.473,-1.269 7.069,-5.924 5.801,-10.397 -1.269,-4.473 -5.925,-7.068 -10.396,-5.801 L 18.363,162.531 C 4.967,166.333 -2.839,180.324 0.962,193.72 l 68.874,242.75 c 1.842,6.49 6.1,11.874 11.991,15.16 3.814,2.128 8.017,3.212 12.268,3.212 2.314,0 4.643,-0.322 6.931,-0.971 l 127.681,-36.226 h 59.654 l 122.606,36.226 c 2.289,0.65 4.616,0.971 6.931,0.971 4.25,0 8.454,-1.084 12.267,-3.212 5.891,-3.286 10.149,-8.671 11.991,-15.16 L 511.03,193.72 c 1.842,-6.489 1.046,-13.307 -2.242,-19.198 z M 121.413,392.391 V 82.413 c 0,-4.642 3.776,-8.418 8.418,-8.418 h 252.331 c 4.641,0 8.418,3.776 8.418,8.418 v 309.978 c 0,4.642 -3.777,8.418 -8.418,8.418 h -92.643 c -0.031,0 -0.064,0 -0.095,0 H 129.831 c -4.642,0 -8.418,-3.777 -8.418,-8.418 z"
     id="path12" /></g>
</svg>
