<?xml version="1.0" encoding="UTF-8" standalone="no"?>
<!-- Uploaded to: SVG Repo, www.svgrepo.com, Generator: SVG Repo Mixer Tools -->

<svg
   width="24"
   height="24.000002"
   viewBox="0 0 0.72 0.72000007"
   data-name="Layer 1"
   id="Layer_1"
   version="1.1"
   sodipodi:docname="empty.svg"
   inkscape:version="1.2.1 (9c6d41e410, 2022-07-14)"
   xmlns:inkscape="http://www.inkscape.org/namespaces/inkscape"
   xmlns:sodipodi="http://sodipodi.sourceforge.net/DTD/sodipodi-0.dtd"
   xmlns="http://www.w3.org/2000/svg"
   xmlns:svg="http://www.w3.org/2000/svg">
  <defs
     id="defs31" />
  <sodipodi:namedview
     id="namedview29"
     pagecolor="#ffffff"
     bordercolor="#000000"
     borderopacity="0.25"
     inkscape:showpageshadow="2"
     inkscape:pageopacity="0.0"
     inkscape:pagecheckerboard="true"
     inkscape:deskcolor="#d1d1d1"
     showgrid="false"
     inkscape:zoom="32.666664"
     inkscape:cx="11.984695"
     inkscape:cy="12.000001"
     inkscape:window-width="1680"
     inkscape:window-height="987"
     inkscape:window-x="-8"
     inkscape:window-y="-8"
     inkscape:window-maximized="1"
     inkscape:current-layer="Layer_1" />
  <title
     id="title2" />
  <g
     id="g194"
     transform="matrix(0.04,0,0,0.03428571,-0.12,-0.03428571)">
    <path
       d="m 16.28759,21.168 c -1.0435,1.0434 -2.1367,1.0373 -2.8148,0.3592 -0.6781,-0.6781 -0.6842,-1.7713 0.35921,-2.8148 1.04341,-1.0435 3.41939,-0.9638 3.41939,-0.9638 0,0 0.07961,2.3759 -0.9638,3.4194 z"
       style="fill:#fa6d62"
       id="path4" />
    <path
       d="m 14.80979,21.3566 c -0.4956,0.4956 -1.0149,0.4927 -1.337,0.1706 -0.3221,-0.3221 -0.325,-0.8414 0.1706,-1.337 a 2.64059,2.64059 0 0 1 1.6242,-0.4578 2.64059,2.64059 0 0 1 -0.4578,1.6242 z"
       style="fill:#fff4ab"
       id="path6" />
    <path
       d="m 7.71239,21.168 c 1.0435,1.0434 2.1367,1.0373 2.8148,0.3592 0.6781,-0.6781 0.6842,-1.7713 -0.35919,-2.8148 -1.04339,-1.0435 -3.41941,-0.9638 -3.41941,-0.9638 0,0 -0.07959,2.3759 0.9638,3.4194 z"
       style="fill:#fa6d62"
       id="path8" />
    <path
       d="m 9.19019,21.3566 c 0.4956,0.4956 1.0149,0.4927 1.337,0.1706 0.3221,-0.3221 0.325,-0.8414 -0.1706,-1.337 a 2.64059,2.64059 0 0 0 -1.6242,-0.4578 2.64059,2.64059 0 0 0 0.4578,1.6242 z"
       style="fill:#fff4ab"
       id="path10" />
    <path
       d="M 5.079,8 A 8,8 0 1 0 18.921,8 Z"
       style="fill:#4b5661"
       id="path12" />
    <circle
       cx="7.5"
       cy="5.5"
       r="1.5"
       style="fill:#67c7a5"
       id="circle14" />
    <circle
       cx="11"
       cy="2"
       r="1"
       style="fill:#67c7a5"
       id="circle16" />
    <circle
       cx="12.5"
       cy="7.5"
       r="2.5"
       style="fill:#67c7a5"
       id="circle18" />
    <path
       d="M 20,10 H 4 A 1,1 0 0 1 3,9 V 9 A 1,1 0 0 1 4,8 h 16 a 1,1 0 0 1 1,1 v 0 a 1,1 0 0 1 -1,1 z"
       style="fill:#4b5661"
       id="path20" />
    <circle
       cx="17.5"
       cy="3.5"
       r="1.5"
       style="fill:#67c7a5"
       id="circle22" />
    <path
       d="M 13.73629,19.7556 C 13.73629,21.2313 12.95889,22 12,22 11.04111,22 10.26369,21.2313 10.26369,19.7556 10.26369,18.2799 12,16.6563 12,16.6563 c 0,0 1.73629,1.6237 1.73629,3.0993 z"
       style="fill:#fa6d62"
       id="path24" />
    <path
       d="M 12.82479,20.9339 C 12.82479,21.6348 12.45549,22 12,22 11.54451,22 11.17519,21.6348 11.17519,20.9339 A 2.64038,2.64038 0 0 1 12,19.4617 a 2.64039,2.64039 0 0 1 0.82479,1.4722 z"
       style="fill:#fff4ab"
       id="path26" />
  </g>
</svg>
