<?xml version="1.0" encoding="UTF-8" standalone="no"?>
<!-- Uploaded to: SVG Repo, www.svgrepo.com, Generator: SVG Repo Mixer Tools -->

<svg
   version="1.1"
   id="Layer_1"
   viewBox="0 0 24.459248 24.422902"
   xml:space="preserve"
   sodipodi:docname="paymentMethods.svg"
   width="24.459248"
   height="24.422903"
   inkscape:version="1.3.2 (091e20e, 2023-11-25, custom)"
   xmlns:inkscape="http://www.inkscape.org/namespaces/inkscape"
   xmlns:sodipodi="http://sodipodi.sourceforge.net/DTD/sodipodi-0.dtd"
   xmlns="http://www.w3.org/2000/svg"
   xmlns:svg="http://www.w3.org/2000/svg"><defs
   id="defs21" /><sodipodi:namedview
   id="namedview21"
   pagecolor="#ffffff"
   bordercolor="#000000"
   borderopacity="0.25"
   inkscape:showpageshadow="2"
   inkscape:pageopacity="0.0"
   inkscape:pagecheckerboard="true"
   inkscape:deskcolor="#d1d1d1"
   inkscape:zoom="33.615987"
   inkscape:cx="12.241199"
   inkscape:cy="12.211452"
   inkscape:window-width="1920"
   inkscape:window-height="1017"
   inkscape:window-x="-8"
   inkscape:window-y="-8"
   inkscape:window-maximized="1"
   inkscape:current-layer="Layer_1" />

















<g
   id="g22"
   transform="matrix(0.06178974,0,0,0.046875,-3.5885493,0.24870558)"
   style="stroke:#ffffff;stroke-width:7.43244;stroke-dasharray:none;stroke-opacity:1"><path
     style="fill:#ffdc64;stroke:#ffffff;stroke-width:7.43244;stroke-dasharray:none;stroke-opacity:1"
     d="M 441.379,229.517 H 335.448 V 476.69 h 105.931 c 4.875,0 8.828,-3.953 8.828,-8.828 V 238.345 c 0,-4.875 -3.953,-8.828 -8.828,-8.828 z"
     id="path1" /><rect
     x="379.586"
     y="229.517"
     style="fill:#5b5d6e;stroke:#ffffff;stroke-width:7.43244;stroke-dasharray:none;stroke-opacity:1"
     width="35.310001"
     height="247.172"
     id="rect1" /><rect
     x="335.448"
     y="229.517"
     style="fill:#ffc850;stroke:#ffffff;stroke-width:7.43244;stroke-dasharray:none;stroke-opacity:1"
     width="26.483"
     height="247.172"
     id="rect2" /><path
     style="fill:#5b5d6e;stroke:#ffffff;stroke-width:7.43244;stroke-dasharray:none;stroke-opacity:1"
     d="M 308.966,512 H 97.103 c -19.501,0 -35.31,-15.809 -35.31,-35.31 V 105.931 c 0,-19.501 15.809,-35.31 35.31,-35.31 h 211.862 c 19.501,0 35.31,15.809 35.31,35.31 V 476.69 C 344.276,496.191 328.467,512 308.966,512 Z"
     id="path2" /><g
     id="g4"
     style="stroke:#ffffff;stroke-width:7.43244;stroke-dasharray:none;stroke-opacity:1">
	<path
   style="fill:#464655;stroke:#ffffff;stroke-width:7.43244;stroke-dasharray:none;stroke-opacity:1"
   d="M 105.931,476.69 V 105.931 c 0,-19.501 15.809,-35.31 35.31,-35.31 H 97.103 c -19.501,0 -35.31,15.809 -35.31,35.31 V 476.69 c 0,19.501 15.809,35.31 35.31,35.31 h 44.138 c -19.501,0 -35.31,-15.809 -35.31,-35.31 z"
   id="path3" />
	<path
   style="fill:#464655;stroke:#ffffff;stroke-width:7.43244;stroke-dasharray:none;stroke-opacity:1"
   d="M 308.966,141.241 H 97.103 c -4.879,0 -8.828,-3.953 -8.828,-8.828 0,-4.875 3.948,-8.828 8.828,-8.828 h 211.862 c 4.879,0 8.828,3.953 8.828,8.828 0,4.876 -3.948,8.828 -8.827,8.828 z"
   id="path4" />
</g><g
     id="g6"
     style="stroke:#ffffff;stroke-width:7.43244;stroke-dasharray:none;stroke-opacity:1">
	<path
   style="fill:#c7cfe2;stroke:#ffffff;stroke-width:7.43244;stroke-dasharray:none;stroke-opacity:1"
   d="m 207.448,335.448 h -8.828 c -9.751,0 -17.655,-7.904 -17.655,-17.655 v 0 c 0,-9.751 7.904,-17.655 17.655,-17.655 h 8.828 c 9.751,0 17.655,7.904 17.655,17.655 v 0 c 0,9.751 -7.904,17.655 -17.655,17.655 z"
   id="path5" />
	<path
   style="fill:#c7cfe2;stroke:#ffffff;stroke-width:7.43244;stroke-dasharray:none;stroke-opacity:1"
   d="m 207.448,406.069 h -8.828 c -9.751,0 -17.655,-7.904 -17.655,-17.655 v 0 c 0,-9.751 7.904,-17.655 17.655,-17.655 h 8.828 c 9.751,0 17.655,7.904 17.655,17.655 v 0 c 0,9.751 -7.904,17.655 -17.655,17.655 z"
   id="path6" />
</g><path
     style="fill:#ffdc64;stroke:#ffffff;stroke-width:7.43244;stroke-dasharray:none;stroke-opacity:1"
     d="m 207.448,476.69 h -8.828 c -9.751,0 -17.655,-7.904 -17.655,-17.655 v 0 c 0,-9.751 7.904,-17.655 17.655,-17.655 h 8.828 c 9.751,0 17.655,7.904 17.655,17.655 v 0 c 0,9.751 -7.904,17.655 -17.655,17.655 z"
     id="path7" /><g
     id="g9"
     style="stroke:#ffffff;stroke-width:7.43244;stroke-dasharray:none;stroke-opacity:1">
	<path
   style="fill:#c7cfe2;stroke:#ffffff;stroke-width:7.43244;stroke-dasharray:none;stroke-opacity:1"
   d="m 286.897,335.448 h -8.828 c -9.751,0 -17.655,-7.904 -17.655,-17.655 v 0 c 0,-9.751 7.904,-17.655 17.655,-17.655 h 8.828 c 9.751,0 17.655,7.904 17.655,17.655 v 0 c 0,9.751 -7.904,17.655 -17.655,17.655 z"
   id="path8" />
	<path
   style="fill:#c7cfe2;stroke:#ffffff;stroke-width:7.43244;stroke-dasharray:none;stroke-opacity:1"
   d="m 286.897,406.069 h -8.828 c -9.751,0 -17.655,-7.904 -17.655,-17.655 v 0 c 0,-9.751 7.904,-17.655 17.655,-17.655 h 8.828 c 9.751,0 17.655,7.904 17.655,17.655 v 0 c 0,9.751 -7.904,17.655 -17.655,17.655 z"
   id="path9" />
</g><path
     style="fill:#c8ff82;stroke:#ffffff;stroke-width:7.43244;stroke-dasharray:none;stroke-opacity:1"
     d="m 286.897,476.69 h -8.828 c -9.751,0 -17.655,-7.904 -17.655,-17.655 v 0 c 0,-9.751 7.904,-17.655 17.655,-17.655 h 8.828 c 9.751,0 17.655,7.904 17.655,17.655 v 0 c 0,9.751 -7.904,17.655 -17.655,17.655 z"
     id="path10" /><g
     id="g12"
     style="stroke:#ffffff;stroke-width:7.43244;stroke-dasharray:none;stroke-opacity:1">
	<path
   style="fill:#c7cfe2;stroke:#ffffff;stroke-width:7.43244;stroke-dasharray:none;stroke-opacity:1"
   d="m 128,335.448 h -8.828 c -9.751,0 -17.655,-7.904 -17.655,-17.655 v 0 c 0,-9.751 7.904,-17.655 17.655,-17.655 H 128 c 9.751,0 17.655,7.904 17.655,17.655 v 0 c 0,9.751 -7.904,17.655 -17.655,17.655 z"
   id="path11" />
	<path
   style="fill:#c7cfe2;stroke:#ffffff;stroke-width:7.43244;stroke-dasharray:none;stroke-opacity:1"
   d="m 128,406.069 h -8.828 c -9.751,0 -17.655,-7.904 -17.655,-17.655 v 0 c 0,-9.751 7.904,-17.655 17.655,-17.655 H 128 c 9.751,0 17.655,7.904 17.655,17.655 v 0 c 0,9.751 -7.904,17.655 -17.655,17.655 z"
   id="path12" />
</g><path
     style="fill:#ff507d;stroke:#ffffff;stroke-width:7.43244;stroke-dasharray:none;stroke-opacity:1"
     d="m 128,476.69 h -8.828 c -9.751,0 -17.655,-7.904 -17.655,-17.655 v 0 c 0,-9.751 7.904,-17.655 17.655,-17.655 H 128 c 9.751,0 17.655,7.904 17.655,17.655 v 0 c 0,9.751 -7.904,17.655 -17.655,17.655 z"
     id="path13" /><path
     style="fill:#b4e66e;stroke:#ffffff;stroke-width:7.43244;stroke-dasharray:none;stroke-opacity:1"
     d="M 300.138,167.724 H 105.931 c -4.875,0 -8.828,3.953 -8.828,8.828 V 256 c 0,4.875 3.953,8.828 8.828,8.828 h 194.207 c 4.875,0 8.828,-3.953 8.828,-8.828 v -79.448 c 0,-4.875 -3.953,-8.828 -8.828,-8.828 z"
     id="path14" /><polygon
     style="fill:#e4eaf8;stroke:#ffffff;stroke-width:7.43244;stroke-dasharray:none;stroke-opacity:1"
     points="203.034,0 178.759,8.828 154.483,0 130.207,8.828 105.931,0 105.931,141.241 300.138,141.241 300.138,0 275.862,8.828 251.586,0 227.31,8.828 "
     id="polygon14" /><path
     style="fill:#707487;stroke:#ffffff;stroke-width:7.43244;stroke-dasharray:none;stroke-opacity:1"
     d="m 264.828,105.931 h -35.31 c -4.879,0 -8.828,-3.953 -8.828,-8.828 0,-4.875 3.948,-8.828 8.828,-8.828 h 35.31 c 4.879,0 8.828,3.953 8.828,8.828 -0.001,4.875 -3.949,8.828 -8.828,8.828 z"
     id="path15" /><g
     id="g18"
     style="stroke:#ffffff;stroke-width:7.43244;stroke-dasharray:none;stroke-opacity:1">
	<path
   style="fill:#7f8499;stroke:#ffffff;stroke-width:7.43244;stroke-dasharray:none;stroke-opacity:1"
   d="m 194.207,105.931 h -52.966 c -4.879,0 -8.828,-3.953 -8.828,-8.828 0,-4.875 3.948,-8.828 8.828,-8.828 h 52.966 c 4.879,0 8.828,3.953 8.828,8.828 -0.001,4.875 -3.949,8.828 -8.828,8.828 z"
   id="path16" />
	<path
   style="fill:#7f8499;stroke:#ffffff;stroke-width:7.43244;stroke-dasharray:none;stroke-opacity:1"
   d="m 264.828,70.621 h -17.655 c -4.879,0 -8.828,-3.953 -8.828,-8.828 0,-4.875 3.948,-8.828 8.828,-8.828 h 17.655 c 4.879,0 8.828,3.953 8.828,8.828 0,4.875 -3.949,8.828 -8.828,8.828 z"
   id="path17" />
	<path
   style="fill:#7f8499;stroke:#ffffff;stroke-width:7.43244;stroke-dasharray:none;stroke-opacity:1"
   d="m 211.862,70.621 h -17.655 c -4.879,0 -8.828,-3.953 -8.828,-8.828 0,-4.875 3.948,-8.828 8.828,-8.828 h 17.655 c 4.879,0 8.828,3.953 8.828,8.828 0,4.875 -3.948,8.828 -8.828,8.828 z"
   id="path18" />
</g><path
     style="fill:#707487;stroke:#ffffff;stroke-width:7.43244;stroke-dasharray:none;stroke-opacity:1"
     d="m 158.897,70.621 h -17.655 c -4.879,0 -8.828,-3.953 -8.828,-8.828 0,-4.875 3.948,-8.828 8.828,-8.828 h 17.655 c 4.879,0 8.828,3.953 8.828,8.828 0,4.875 -3.949,8.828 -8.828,8.828 z"
     id="path19" /><rect
     x="105.931"
     y="123.586"
     style="fill:#d5dced;stroke:#ffffff;stroke-width:7.43244;stroke-dasharray:none;stroke-opacity:1"
     width="194.207"
     height="17.655001"
     id="rect19" /><g
     id="g21"
     style="stroke:#ffffff;stroke-width:7.43244;stroke-dasharray:none;stroke-opacity:1">
	<path
   style="fill:#c8ff82;stroke:#ffffff;stroke-width:7.43244;stroke-dasharray:none;stroke-opacity:1"
   d="m 199.769,243.242 34.878,-52.318 c 1.58,-2.37 -0.119,-5.545 -2.967,-5.545 h -50.404 c -2.952,0 -5.707,1.475 -7.345,3.93 l -34.915,52.373 c -1.565,2.347 0.118,5.49 2.938,5.49 h 50.471 c 2.952,0 5.708,-1.475 7.344,-3.93 z"
   id="path20" />
	<path
   style="fill:#c8ff82;stroke:#ffffff;stroke-width:7.43244;stroke-dasharray:none;stroke-opacity:1"
   d="m 243.907,243.242 34.879,-52.318 c 1.58,-2.37 -0.119,-5.545 -2.967,-5.545 h -15.095 c -2.952,0 -5.707,1.475 -7.345,3.93 l -34.915,52.373 c -1.565,2.347 0.118,5.49 2.938,5.49 h 15.16 c 2.952,0 5.709,-1.475 7.345,-3.93 z"
   id="path21" />
</g></g>
</svg>
