<?xml version="1.0" encoding="UTF-8" standalone="no"?>
<!-- Uploaded to: SVG Repo, www.svgrepo.com, Generator: SVG Repo Mixer Tools -->

<svg
   version="1.1"
   id="Layer_1"
   viewBox="0 0 24 24"
   xml:space="preserve"
   sodipodi:docname="building-svgrepo-com.svg"
   width="24"
   height="24"
   inkscape:version="1.2.1 (9c6d41e410, 2022-07-14)"
   xmlns:inkscape="http://www.inkscape.org/namespaces/inkscape"
   xmlns:sodipodi="http://sodipodi.sourceforge.net/DTD/sodipodi-0.dtd"
   xmlns="http://www.w3.org/2000/svg"
   xmlns:svg="http://www.w3.org/2000/svg"><defs
   id="defs71" /><sodipodi:namedview
   id="namedview69"
   pagecolor="#ffffff"
   bordercolor="#000000"
   borderopacity="0.25"
   inkscape:showpageshadow="2"
   inkscape:pageopacity="0.0"
   inkscape:pagecheckerboard="true"
   inkscape:deskcolor="#d1d1d1"
   showgrid="false"
   inkscape:zoom="32.666667"
   inkscape:cx="11.984694"
   inkscape:cy="12"
   inkscape:window-width="1680"
   inkscape:window-height="987"
   inkscape:window-x="-8"
   inkscape:window-y="-8"
   inkscape:window-maximized="1"
   inkscape:current-layer="Layer_1" />










<g
   id="g229"
   transform="matrix(0.046875,0,0,0.05388173,0,-1.7937228)"><rect
     x="51.272999"
     y="147.519"
     style="fill:#ffc473"
     width="108.669"
     height="331.19101"
     id="rect2" /><rect
     x="352.05701"
     y="146.43201"
     style="fill:#ffa91f"
     width="108.669"
     height="331.19101"
     id="rect4" /><rect
     x="144.269"
     y="33.290001"
     style="fill:#aeadb3"
     width="223.46201"
     height="429.746"
     id="rect6" /><rect
     x="255.31"
     y="33.290001"
     style="fill:#8b8892"
     width="112.421"
     height="429.746"
     id="rect8" /><rect
     x="230.39999"
     y="363.478"
     style="fill:#ffffff"
     width="51.200001"
     height="99.557999"
     id="rect10" /><rect
     x="255.31"
     y="363.478"
     style="fill:#c8c6cd"
     width="26.290001"
     height="99.557999"
     id="rect12" /><g
     id="g38">
	<rect
   x="188.17599"
   y="75.097"
   style="fill:#ffffff"
   width="32.192001"
   height="32.192001"
   id="rect14" />
	<rect
   x="239.909"
   y="75.097"
   style="fill:#ffffff"
   width="32.182999"
   height="32.193001"
   id="rect16" />
	<rect
   x="291.63101"
   y="75.097"
   style="fill:#ffffff"
   width="32.182999"
   height="32.193001"
   id="rect18" />
	<rect
   x="188.17599"
   y="125.774"
   style="fill:#ffffff"
   width="32.192001"
   height="32.192001"
   id="rect20" />
	<rect
   x="239.909"
   y="125.774"
   style="fill:#ffffff"
   width="32.182999"
   height="32.193001"
   id="rect22" />
	<rect
   x="291.63101"
   y="125.774"
   style="fill:#ffffff"
   width="32.182999"
   height="32.193001"
   id="rect24" />
	<rect
   x="188.17599"
   y="176.452"
   style="fill:#ffffff"
   width="32.192001"
   height="32.192001"
   id="rect26" />
	<rect
   x="239.909"
   y="176.452"
   style="fill:#ffffff"
   width="32.182999"
   height="32.193001"
   id="rect28" />
	<rect
   x="291.63101"
   y="176.452"
   style="fill:#ffffff"
   width="32.182999"
   height="32.193001"
   id="rect30" />
	<rect
   x="188.17599"
   y="227.129"
   style="fill:#ffffff"
   width="32.192001"
   height="32.192001"
   id="rect32" />
	<rect
   x="239.909"
   y="227.129"
   style="fill:#ffffff"
   width="32.182999"
   height="32.193001"
   id="rect34" />
	<rect
   x="291.63101"
   y="227.129"
   style="fill:#ffffff"
   width="32.182999"
   height="32.193001"
   id="rect36" />
</g><g
     id="g44">
	<rect
   x="144.269"
   y="300.25101"
   style="fill:#57555c"
   width="223.46201"
   height="31.347"
   id="rect40" />
	<rect
   y="447.36301"
   style="fill:#57555c"
   width="512"
   height="31.347"
   id="rect42"
   x="0" />
</g><rect
     x="255.31"
     y="300.25101"
     style="fill:#2b292c"
     width="112.421"
     height="31.347"
     id="rect46" /><g
     id="g64">
	<rect
   x="255.31"
   y="75.097"
   style="fill:#c8c6cd"
   width="16.781"
   height="32.193001"
   id="rect48" />
	<rect
   x="255.31"
   y="125.774"
   style="fill:#c8c6cd"
   width="16.781"
   height="32.193001"
   id="rect50" />
	<rect
   x="255.31"
   y="176.452"
   style="fill:#c8c6cd"
   width="16.781"
   height="32.193001"
   id="rect52" />
	<rect
   x="255.31"
   y="227.129"
   style="fill:#c8c6cd"
   width="16.781"
   height="32.193001"
   id="rect54" />
	<rect
   x="291.63101"
   y="75.097"
   style="fill:#c8c6cd"
   width="32.182999"
   height="32.193001"
   id="rect56" />
	<rect
   x="291.63101"
   y="125.774"
   style="fill:#c8c6cd"
   width="32.182999"
   height="32.193001"
   id="rect58" />
	<rect
   x="291.63101"
   y="176.452"
   style="fill:#c8c6cd"
   width="32.182999"
   height="32.193001"
   id="rect60" />
	<rect
   x="291.63101"
   y="227.129"
   style="fill:#c8c6cd"
   width="32.182999"
   height="32.193001"
   id="rect62" />
</g><rect
     x="255.31"
     y="447.36301"
     style="fill:#2b292c"
     width="256.69"
     height="31.347"
     id="rect66" /></g>
</svg>
